<?xml version="1.0" standalone="no"?>
<!DOCTYPE svg PUBLIC "-//W3C//DTD SVG 20010904//EN"
 "http://www.w3.org/TR/2001/REC-SVG-20010904/DTD/svg10.dtd">
<svg version="1.0" xmlns="http://www.w3.org/2000/svg"
 width="1120.000000pt" height="1120.000000pt" viewBox="0 0 1120.000000 1120.000000"
 preserveAspectRatio="xMidYMid meet">

<g transform="translate(0.000000,1120.000000) scale(0.100000,-0.100000)"
fill="#000000" stroke="none">
<path d="M5455 6985 c-142 -26 -263 -89 -366 -190 -156 -152 -226 -333 -217
-558 6 -139 40 -246 111 -355 108 -166 252 -268 452 -319 92 -24 288 -14 383
20 110 38 208 101 292 186 68 69 150 188 150 217 0 8 -65 13 -227 16 -200 5
-235 8 -287 27 -87 31 -144 67 -206 131 -148 151 -167 372 -48 550 24 35 30
56 32 100 l1 55 64 3 c81 4 200 -20 287 -57 l67 -29 79 29 c43 16 96 29 118
29 l40 0 0 -129 c0 -147 6 -161 68 -161 64 0 63 -4 60 215 l-3 199 -35 7 c-54
12 -223 -8 -279 -32 l-50 -21 -63 25 c-135 54 -281 69 -423 42z m-75 -186 c0
-17 -11 -49 -24 -72 -64 -110 -87 -248 -61 -372 26 -125 66 -197 165 -296 129
-131 238 -175 453 -186 116 -6 117 -6 100 -26 -35 -38 -139 -105 -208 -132
-84 -34 -236 -45 -337 -26 -196 38 -369 190 -440 387 -29 82 -37 255 -14 344
28 111 72 188 155 271 70 69 168 138 199 139 7 0 12 -13 12 -31z"/>
<path d="M5684 6536 c-37 -16 -58 -61 -48 -102 9 -40 20 -51 59 -64 95 -31
161 85 85 153 -34 30 -51 32 -96 13z"/>
<path d="M6033 6534 c-43 -22 -59 -69 -40 -116 34 -80 151 -69 173 16 9 37
-22 93 -58 105 -38 14 -36 14 -75 -5z"/>
<path d="M5842 6243 c4 -48 10 -61 37 -85 41 -36 56 -35 97 6 30 30 34 40 34
85 l0 51 -86 0 -86 0 4 -57z"/>
<path d="M3840 4665 l0 -395 60 0 60 0 0 395 0 395 -60 0 -60 0 0 -395z"/>
<path d="M4092 5037 c-42 -45 -16 -107 44 -107 68 0 98 69 48 109 -35 27 -65
27 -92 -2z"/>
<path d="M4318 5053 c-2 -5 -2 -182 0 -395 l3 -388 55 0 54 0 0 395 0 395 -54
0 c-30 0 -56 -3 -58 -7z"/>
<path d="M4550 4665 l0 -396 58 3 57 3 0 390 0 390 -57 3 -58 3 0 -396z"/>
<path d="M5370 4665 l0 -395 60 0 60 0 0 395 0 395 -60 0 -60 0 0 -395z"/>
<path d="M4927 4835 c-214 -69 -244 -441 -44 -548 35 -18 58 -22 137 -22 83 0
101 3 139 25 50 28 97 82 106 123 7 27 7 27 -47 27 -45 0 -55 -3 -63 -22 -16
-37 -73 -68 -122 -68 -80 0 -138 39 -162 109 -21 64 -31 61 204 61 l215 0 -6
48 c-16 139 -55 209 -139 251 -60 30 -152 37 -218 16z m134 -85 c19 -5 47 -22
61 -37 27 -30 51 -89 42 -104 -6 -11 -291 -12 -297 -1 -8 12 20 83 43 107 12
13 38 28 59 33 49 13 51 13 92 2z"/>
<path d="M5767 4836 c-63 -17 -113 -59 -151 -126 -29 -51 -31 -62 -31 -155 0
-116 18 -168 79 -227 96 -93 302 -89 398 7 69 69 97 213 64 327 -20 68 -80
139 -138 163 -57 23 -162 28 -221 11z m177 -105 c49 -27 71 -83 71 -181 0 -67
-4 -92 -20 -119 -33 -56 -68 -76 -135 -76 -67 0 -102 20 -135 76 -31 52 -29
200 3 252 45 72 137 93 216 48z"/>
<path d="M6360 4838 c-97 -27 -150 -114 -158 -254 -7 -146 37 -242 133 -285
81 -37 205 -15 252 45 12 14 24 26 28 26 14 0 -3 -151 -20 -176 -21 -33 -72
-54 -129 -54 -63 0 -93 14 -117 55 -20 34 -23 35 -80 35 l-58 0 15 -42 c35
-101 83 -130 226 -136 87 -4 102 -2 151 21 61 28 100 72 116 132 7 25 11 154
11 338 l0 297 -55 0 -55 0 0 -44 0 -44 -38 38 c-55 55 -136 73 -222 48z m183
-107 c40 -16 77 -99 77 -174 0 -111 -58 -177 -157 -177 -44 0 -58 5 -87 30
-45 40 -60 86 -54 170 10 140 98 200 221 151z"/>
<path d="M6967 4836 c-74 -27 -121 -92 -143 -197 -31 -148 20 -285 128 -340
81 -42 217 -14 258 53 22 37 23 36 20 -67 -3 -104 -45 -145 -147 -145 -59 0
-92 16 -118 57 -19 30 -24 32 -77 33 l-57 0 14 -39 c36 -102 88 -134 228 -139
89 -4 101 -2 152 23 68 33 102 76 115 145 5 29 10 180 10 336 l0 284 -55 0
-55 0 0 -45 0 -46 -37 39 c-57 59 -151 78 -236 48z m202 -113 c47 -36 66 -81
66 -158 0 -121 -53 -185 -153 -185 -59 0 -98 23 -123 72 -29 56 -25 192 7 235
46 63 143 80 203 36z"/>
<path d="M4093 4833 c-10 -3 -13 -70 -13 -284 l0 -279 55 0 55 0 0 285 0 285
-42 -1 c-24 0 -49 -3 -55 -6z"/>
</g>
</svg>
